HIERARCHY
ROOT root
{
	OFFSET	0	13.1	24.9
	CHANNELS 6  Xposition Yposition Zposition Xrotation Yrotation Zrotation
	JOINT spine_1
	{
		OFFSET	0	9.99999	0
		CHANNELS 3  Xrotation Yrotation Zrotation
		JOINT spine_2
		{
			OFFSET	0	112	-10
			CHANNELS 3  Xrotation Yrotation Zrotation
			JOINT spine_3
			{
				OFFSET	0	206.5	19.3
				CHANNELS 3  Xrotation Yrotation Zrotation
				JOINT spine_4
				{
					OFFSET	0	110.4	14.6
					CHANNELS 3  Xrotation Yrotation Zrotation
					JOINT neck_1
					{
						OFFSET	0	71.8	-50.3
						CHANNELS 3  Xrotation Yrotation Zrotation
						JOINT neck_2
						{
							OFFSET	0	86.2	-25.8
							CHANNELS 3  Xrotation Yrotation Zrotation
							JOINT head_ee
							{
								OFFSET	0	179.8	-8.7
								CHANNELS 3  Xrotation Yrotation Zrotation
								End Site
								{
									OFFSET	1	0	0
								}
							}
						}
					}
					JOINT left_clavicle
					{
						OFFSET	-43.2	22.4	-70.8
						CHANNELS 3  Xrotation Yrotation Zrotation
						JOINT left_shoulder
						{
							OFFSET	-93.9	-5.79999	48.7
							CHANNELS 3  Xrotation Yrotation Zrotation
							JOINT left_elbow
							{
								OFFSET	-291.4	-30.8	15.2
								CHANNELS 3  Xrotation Yrotation Zrotation
								JOINT left_lowarm_twist
								{
									OFFSET	-110.7	-3.89999	13.6
									CHANNELS 3  Xrotation Yrotation Zrotation
									JOINT left_hand
									{
										OFFSET	-110.7	-3.89999	13.6
										CHANNELS 3  Xrotation Yrotation Zrotation
										JOINT left_ee
										{
											OFFSET	-80.8	-5.10001	12.1
											CHANNELS 3  Xrotation Yrotation Zrotation
											End Site
											{
												OFFSET	1	0	0
											}
										}
									}
								}
							}
						}
					}
					JOINT right_clavicle
					{
						OFFSET	43.2	22.4	-70.8
						CHANNELS 3  Xrotation Yrotation Zrotation
						JOINT right_shoulder
						{
							OFFSET	93.9	-5.79999	48.7
							CHANNELS 3  Xrotation Yrotation Zrotation
							JOINT right_elbow
							{
								OFFSET	291.4	-30.8	15.2
								CHANNELS 3  Xrotation Yrotation Zrotation
								JOINT right_lowarm_twist
								{
									OFFSET	110.7	-3.89999	13.6
									CHANNELS 3  Xrotation Yrotation Zrotation
									JOINT right_hand
									{
										OFFSET	110.7	-3.89999	13.6
										CHANNELS 3  Xrotation Yrotation Zrotation
										JOINT right_ee
										{
											OFFSET	80.8	-5.10001	12.1
											CHANNELS 3  Xrotation Yrotation Zrotation
											End Site
											{
												OFFSET	1	0	0
											}
										}
									}
								}
							}
						}
					}
				}
			}
		}
	}
	JOINT left_hip
	{
		OFFSET	-82.8	-127.5	0.300001
		CHANNELS 3  Xrotation Yrotation Zrotation
		JOINT left_knee
		{
			OFFSET	-28.2	-396.7	2.2
			CHANNELS 3  Xrotation Yrotation Zrotation
			JOINT left_ankle
			{
				OFFSET	-11.7	-411.3	35.4
				CHANNELS 3  Xrotation Yrotation Zrotation
				JOINT left_toes
				{
					OFFSET	0	-60	-88.6
					CHANNELS 3  Xrotation Yrotation Zrotation
					JOINT left_foot_ee
					{
						OFFSET	-22.5	-16.5	-42.2
						CHANNELS 3  Xrotation Yrotation Zrotation
						End Site
						{
							OFFSET	1	0	0
						}
					}
				}
			}
		}
	}
	JOINT right_hip
	{
		OFFSET	82.8	-127.5	0.300001
		CHANNELS 3  Xrotation Yrotation Zrotation
		JOINT right_knee
		{
			OFFSET	28.2	-396.7	2.2
			CHANNELS 3  Xrotation Yrotation Zrotation
			JOINT right_ankle
			{
				OFFSET	11.7	-411.3	35.4
				CHANNELS 3  Xrotation Yrotation Zrotation
				JOINT right_toes
				{
					OFFSET	0	-60	-88.6
					CHANNELS 3  Xrotation Yrotation Zrotation
					JOINT right_foot_ee
					{
						OFFSET	22.5	-16.5	-42.2
						CHANNELS 3  Xrotation Yrotation Zrotation
						End Site
						{
							OFFSET	1	0	0
						}
					}
				}
			}
		}
	}
}
MOTION
Frames: 12
Frame Time: 0.02
1372.05 701.618 -1475.22 -30.5728512347 38.2335441513 28.3869805954 10.8654 -0.887222 -3.35481 10.8715 -0.672076 -3.40439 10.8957 -0.599535 -3.41789 10.8812 -1.13152 -3.28056 -16.4082 -1.58616 4.78789 -16.3787 -5.77355 3.93588 -0.0 0.0 -0.0 10.4609 -10.7614 20.8363 -25.5034 -41.2739 47.2238 1.53578 -37.2606 0.51778 -78.8951 -7.68149 5.29326 -5.50769 19.4608 -26.0706 -0.0 0.0 -0.0 2.31459 -25.2223 -5.95746 83.891 -57.9205 23.0355 0.195348 5.52743 -0.00943016 68.9248 2.62957 7.86657 -3.99747 3.11161 29.4884 0.0 0.0 0.0 26.1909 16.4031 -16.4083 -24.3664 0.218311 3.70476 39.9547 -9.92861 -5.02127 40.2219 -0.0 -0.0 -0.0 0.0 -0.0 49.9966 3.93849 -6.38835 -0.699867 -0.0281845 -0.103704 32.5643 -18.7405 4.2626 4.71113 -0.0 -0.0 0.0 0.0 0.0 
1364.58441987 698.37 -1503.98957618 -30.344790973 38.6929627177 28.8536334734 11.0838 -0.903933 -3.27894 11.0895 -0.693573 -3.32974 11.1145 -0.635407 -3.34132 11.1008 -1.15487 -3.19927 -18.9833 -1.92587 5.33212 -18.9616 -6.51364 4.19993 -0.0 0.0 -0.0 9.73983 -13.11 19.1896 -25.3596 -39.0246 48.9427 1.46423 -35.9525 0.47511 -78.9605 -7.68982 5.29253 -6.70057 16.8478 -36.9683 -0.0 0.0 -0.0 2.01825 -25.291 -5.5686 85.2473 -58.1755 24.1243 0.190999 5.40511 -0.0090159 67.8776 2.52317 7.78454 -4.19416 8.396 33.7678 0.0 0.0 0.0 24.0965 10.7023 -17.076 -27.6414 0.127156 4.19902 40.1181 -3.89825 -4.92613 40.1827 -0.0 -0.0 -0.0 0.0 -0.0 49.7953 4.89771 -7.37093 -4.05134 -0.145476 -0.604609 33.7975 -16.5035 4.35672 -2.07661 0.0 0.0 0.0 0.0 0.0 
1349.25903356 702.746 -1514.80780935 -30.0245786191 38.2847974864 27.5257711726 11.2236 -0.883522 -2.98302 11.2282 -0.692004 -3.03314 11.252 -0.646237 -3.04321 11.2408 -1.11855 -2.90315 -20.9611 -3.01177 3.91673 -21.0133 -7.734 2.32573 -0.0 0.0 -0.0 10.3802 -14.2404 20.5694 -24.9159 -37.5518 50.9111 1.3097 -32.9734 0.387635 -79.61 -7.77234 5.28482 -8.11072 17.3817 -48.8229 -0.0 0.0 -0.0 1.5693 -23.2988 -4.85309 90.3374 -58.937 27.7234 0.187828 5.31588 -0.00871961 66.8893 2.42414 7.70535 -4.38493 14.7549 38.3453 0.0 0.0 0.0 22.9121 5.15559 -14.5445 -29.9333 0.0466163 4.54152 40.1 0.619525 -4.88027 39.3345 -0.0 -0.0 -0.0 0.0 -0.0 49.5458 4.56521 -7.87984 -4.06336 -0.145844 -0.606418 31.1454 -14.2939 4.05127 -8.58113 0.0 0.0 0.0 0.0 0.0 
1322.21000733 712.927 -1557.71427392 -30.0009874508 41.3893079926 28.5483972388 11.274 -0.797834 -2.88269 11.2784 -0.612866 -2.92756 11.2976 -0.570901 -2.93603 11.287 -1.02725 -2.80918 -21.8979 -5.55624 -2.42561 -22.0309 -9.57172 -4.76251 -0.0 0.0 -0.0 10.9853 -14.1083 21.9279 -27.6236 -34.2791 55.4309 1.16965 -30.0874 0.314373 -83.7917 -8.30056 5.21266 -9.44436 15.5151 -69.8369 -0.0 0.0 -0.0 0.386858 -24.8879 -3.38191 90.1484 -60.7655 24.0605 0.220693 6.23923 -0.0120281 68.7374 2.61041 7.85203 -4.11009 27.0879 40.6244 0.0 0.0 0.0 21.9845 -8.53749 -10.8249 -36.5468 -0.261819 5.50879 41.0083 10.0778 -4.96452 38.9937 -0.0 -0.0 -0.0 0.0 -0.0 47.2848 4.28973 -8.41267 -13.0436 -0.313649 -1.97284 40.3917 -10.746 4.91676 -22.8742 0.0 0.0 0.0 0.0 0.0 
1310.77652454 717.244 -1575.91816535 -30.7056982329 42.4118029798 29.1237589622 11.3379 -0.667115 -2.68103 11.3417 -0.495227 -2.71801 11.3547 -0.458807 -2.72439 11.3454 -0.88317 -2.61786 -22.458 -5.81784 -3.2993 -22.586 -9.69586 -5.74549 -0.0 0.0 -0.0 11.1387 -14.2768 22.2676 -27.6764 -33.406 57.1013 1.17969 -30.3003 0.319423 -83.7467 -8.2949 5.21365 -9.40577 14.132 -72.6133 -0.0 0.0 -0.0 0.208517 -24.345 -3.09012 90.9004 -62.9972 24.6954 0.267314 7.54338 -0.0176224 71.5614 2.90398 8.06442 -3.59319 27.76 36.7397 0.0 0.0 0.0 21.7364 -16.4474 -10.0557 -39.3906 -0.42845 5.91279 40.6371 16.7392 -5.01864 39.04 -0.0 -0.0 -0.0 0.0 -0.0 45.7388 4.75051 -8.69345 -12.7225 -0.311353 -1.92363 41.1467 -10.0128 4.97584 -29.1014 0.0 0.0 0.0 0.0 0.0 
1313.21191954 717.244 -1577.36029365 -30.0828983001 41.2250673994 28.1897686333 11.3379 -0.667115 -2.68103 11.3417 -0.495227 -2.71801 11.3547 -0.458807 -2.72439 11.3454 -0.88317 -2.61786 -22.458 -5.81784 -3.2993 -22.586 -9.69586 -5.74549 -0.0 0.0 -0.0 11.1387 -14.2768 22.2676 -27.6764 -33.406 57.1013 1.17969 -30.3003 0.319423 -83.7467 -8.2949 5.21365 -9.40577 14.132 -72.6133 -0.0 0.0 -0.0 0.208517 -24.345 -3.09012 90.9004 -62.9972 24.6954 0.267314 7.54338 -0.0176224 71.5614 2.90398 8.06442 -3.59319 27.76 36.7397 0.0 0.0 0.0 21.7364 -16.4474 -10.0557 -39.3906 -0.42845 5.91279 40.6371 16.7392 -5.01864 39.04 -0.0 -0.0 -0.0 0.0 -0.0 45.7388 4.75051 -8.69345 -12.7225 -0.311353 -1.92363 41.1467 -10.0128 4.97584 -29.1014 0.0 0.0 0.0 0.0 0.0 
1298.59537445 718.3 -1615.46870048 -31.1499112494 45.11016409 31.4732015271 11.354 -0.819444 -3.04465 11.3589 -0.62414 -3.09056 11.379 -0.584306 -3.09833 11.3672 -1.06608 -2.96736 -24.5483 -5.29999 -1.33744 -24.7263 -9.64861 -3.89093 -0.0 0.0 -0.0 11.2501 -12.261 22.5699 -27.7239 -27.7535 61.0207 0.829931 -22.3486 0.163946 -85.1228 -8.46727 5.18155 -9.47412 14.7961 -72.434 -0.0 0.0 -0.0 1.65161 -24.0464 -5.0116 90.051 -60.6851 23.1282 0.194827 5.51278 -0.00938006 77.9425 3.60344 8.48956 -1.84545 27.1131 23.8231 0.0 0.0 0.0 25.7125 -29.4247 -8.2167 -53.6552 -1.55519 7.79042 37.5944 23.9861 -4.90071 40.1205 -0.0 -0.0 -0.0 0.0 -0.0 43.8699 5.88992 -11.453 -12.3364 -0.308227 -1.86447 41.4078 -10.5418 5.00246 -35.4267 0.0 0.0 0.0 0.0 0.0 
1285.29407963 727.606 -1628.08406635 -32.2124977555 47.6706636931 34.3432294479 11.1949 -0.958077 -3.48074 11.2013 -0.734789 -3.53456 11.2292 -0.6803 -3.54543 11.2137 -1.23138 -3.39379 -27.8403 -8.31117 -0.259288 -28.4535 -15.8603 -4.95506 -0.0 0.0 -0.0 11.801 -10.178 23.8276 -26.9792 -26.1773 63.815 0.659763 -18.0989 0.105081 -85.2939 -8.48864 5.17727 -9.42096 17.0587 -65.8063 -0.0 0.0 -0.0 2.16032 -23.4155 -5.67305 90.7325 -59.0208 23.1413 0.184267 5.21567 -0.00839276 82.4863 4.12815 8.74366 -1.50726 24.035 20.3434 0.0 0.0 0.0 27.4419 -34.4329 -7.13766 -57.1748 -1.90277 8.20689 31.7765 22.7411 -4.25544 40.1257 -0.0 -0.0 -0.0 0.0 -0.0 42.8191 4.94275 -11.7136 -14.8519 -0.321428 -2.25017 42.1262 -15.571 5.12813 -32.8254 0.0 0.0 0.0 0.0 0.0 
1272.75739603 736.042 -1649.80830658 -34.0043813106 50.7513775509 37.122828847 11.2704 -0.949976 -3.51404 11.277 -0.724591 -3.56727 11.3041 -0.674277 -3.57711 11.2884 -1.23043 -3.42602 -27.2228 -11.0075 -2.03421 -28.2089 -20.3694 -8.10789 -0.0 0.0 -0.0 11.605 -8.97321 23.383 -28.7131 -24.2604 65.702 0.63795 -17.5378 0.0984062 -84.5056 -8.39007 5.19646 -9.24678 19.5728 -58.3772 -0.0 0.0 -0.0 2.73815 -22.2638 -6.43462 90.8929 -58.0311 22.5084 0.178932 5.06545 -0.00791472 85.503 4.48685 8.88906 -1.61746 23.6204 20.9464 0.0 0.0 0.0 29.9773 -38.3567 -6.38226 -60.2827 -2.23058 8.55652 26.3402 20.5206 -3.59059 39.3443 -0.0 -0.0 -0.0 0.0 -0.0 41.1422 2.47442 -11.208 -16.6704 -0.320421 -2.52916 42.2516 -22.1761 5.28965 -29.4221 0.0 0.0 0.0 0.0 0.0 
1263.08131435 738.064 -1660.10801488 -35.0291195254 53.1717588771 38.8595688876 11.0902 -0.942333 -3.55956 11.0969 -0.714072 -3.61221 11.1238 -0.651707 -3.62397 11.1076 -1.21552 -3.47586 -27.4768 -12.836 -3.6636 -28.7768 -23.2608 -10.7962 -0.0 0.0 -0.0 11.6188 -6.06596 23.3599 -29.5742 -22.4197 67.0679 0.598254 -16.5077 0.0867847 -83.7427 -8.2944 5.21373 -9.10189 23.6133 -50.2081 -0.0 0.0 -0.0 3.23335 -22.9115 -7.14623 89.906 -56.9969 22.2857 0.177949 5.03776 -0.00782813 85.384 4.47256 8.88368 -1.8799 20.5042 21.5725 0.0 0.0 0.0 30.9057 -39.8627 -6.00044 -60.8612 -2.29369 8.61964 21.0622 18.0321 -2.91492 37.9389 -0.0 -0.0 -0.0 0.0 -0.0 39.8924 -0.237363 -10.6106 -18.5565 -0.310024 -2.81834 43.0313 -25.7199 5.47513 -26.2934 0.0 0.0 0.0 0.0 0.0 
1247.92287313 749.896 -1677.11700554 -38.7942708851 54.5142540305 43.2126264695 11.2828 -0.770529 -3.62105 11.29 -0.53871 -3.66267 11.3053 -0.486796 -3.66992 11.288 -1.05992 -3.54724 -27.3468 -13.6466 -4.23064 -28.7933 -24.5967 -11.7985 -0.0 0.0 -0.0 10.8901 -2.99649 21.6645 -32.0763 -20.6468 67.2343 0.612848 -16.8877 0.090978 -81.793 -8.04883 5.25201 -9.03816 27.7624 -43.5897 -0.0 0.0 -0.0 4.02542 -23.2229 -8.25467 89.3041 -56.1004 21.4255 0.225204 6.36572 -0.0125233 85.2804 4.46013 8.87898 -2.18564 17.7779 22.6597 0.0 0.0 0.0 35.7998 -40.901 -2.15089 -58.8818 -2.08045 8.40109 13.7084 16.3138 -1.94446 35.3989 -0.0 -0.0 -0.0 0.0 -0.0 37.804 -3.97655 -10.4293 -20.2188 -0.292974 -3.07282 42.8905 -26.3911 5.48737 -20.919 0.0 0.0 0.0 0.0 0.0 
1258.54397433 747.08 -1682.24973732 -41.3096339721 55.4677309885 45.4022455041 11.0868 -0.741511 -3.54942 11.0937 -0.514299 -3.58934 11.1079 -0.450952 -3.59783 11.0913 -1.01316 -3.4817 -26.9664 -13.3266 -2.49906 -28.4266 -24.6306 -9.92661 -0.0 0.0 -0.0 10.4612 -2.6688 20.7374 -33.731 -17.6696 66.864 0.703121 -19.2035 0.118948 -77.9652 -7.56317 5.30251 -9.08389 30.4193 -40.2527 -0.0 0.0 -0.0 5.2176 -22.5268 -9.95756 88.2009 -53.6715 18.4973 0.209708 5.93095 -0.0108637 85.1518 4.44471 8.87311 -2.59378 15.5454 24.7023 0.0 0.0 0.0 37.9685 -40.7417 -0.343283 -57.5201 -1.93824 8.24659 9.99104 12.4211 -1.42463 32.3927 -0.0 -0.0 -0.0 0.0 -0.0 40.594 -10.5761 -8.80363 -28.2534 -0.106994 -4.29078 42.4511 -25.2749 5.40661 -15.3554 0.0 0.0 0.0 0.0 0.0 
